<?xml version="1.0" encoding="UTF-8" standalone="no"?>
<!-- Created with Inkscape (http://www.inkscape.org/) -->

<svg
   xmlns:dc="http://purl.org/dc/elements/1.1/"
   xmlns:cc="http://creativecommons.org/ns#"
   xmlns:rdf="http://www.w3.org/1999/02/22-rdf-syntax-ns#"
   xmlns:svg="http://www.w3.org/2000/svg"
   xmlns="http://www.w3.org/2000/svg"
   xmlns:sodipodi="http://sodipodi.sourceforge.net/DTD/sodipodi-0.dtd"
   xmlns:inkscape="http://www.inkscape.org/namespaces/inkscape"
   version="1.1"
   id="svg2"
   xml:space="preserve"
   width="537.66663"
   height="416.73334"
   viewBox="0 0 537.66663 416.73335"
   sodipodi:docname="if_statement.svg"
   inkscape:version="0.92.2 (5c3e80d, 2017-08-06)"><metadata
     id="metadata8"><rdf:RDF><cc:Work
         rdf:about=""><dc:format>image/svg+xml</dc:format><dc:type
           rdf:resource="http://purl.org/dc/dcmitype/StillImage" /><dc:title></dc:title></cc:Work></rdf:RDF></metadata><defs
     id="defs6"><clipPath
       clipPathUnits="userSpaceOnUse"
       id="clipPath18"><path
         d="M 0,0 H 612 V 792 H 0 Z"
         id="path16"
         inkscape:connector-curvature="0"
         style="clip-rule:evenodd" /></clipPath></defs><sodipodi:namedview
     pagecolor="#ffffff"
     bordercolor="#666666"
     borderopacity="1"
     objecttolerance="10"
     gridtolerance="10"
     guidetolerance="10"
     inkscape:pageopacity="0"
     inkscape:pageshadow="2"
     inkscape:window-width="1920"
     inkscape:window-height="1026"
     id="namedview4"
     showgrid="false"
     inkscape:zoom="0.89397143"
     inkscape:cx="339.2453"
     inkscape:cy="194.40163"
     inkscape:window-x="1920"
     inkscape:window-y="0"
     inkscape:window-maximized="1"
     inkscape:current-layer="g10" /><g
     id="g10"
     inkscape:groupmode="layer"
     inkscape:label="if_statement"
     transform="matrix(1.3333333,0,0,-1.3333333,-139.36666,738.89998)"><g
       id="g12"><g
         id="g14"
         clip-path="url(#clipPath18)"><path
           d="m 306.1,553.8 c 11.2,0 19.9,-8.6 19.9,-19.8 0,-11.2 -8.7,-19.9 -19.9,-19.9 -11.2,0 -19.8,8.7 -19.8,19.9 0,11.2 8.6,19.8 19.8,19.8 z m -19.8,0 z M 326,514.1 Z"
           style="fill:#040052;fill-opacity:1;fill-rule:evenodd;stroke:none"
           id="path20"
           inkscape:connector-curvature="0" /><g
           id="g22"><path
             d="m 306.1,553.8 c 11.2,0 19.9,-8.6 19.9,-19.8 0,-11.2 -8.7,-19.9 -19.9,-19.9 -11.2,0 -19.8,8.7 -19.8,19.9 0,11.2 8.6,19.8 19.8,19.8 z"
             style="fill:none;stroke:#040052;stroke-width:0.75;stroke-linecap:butt;stroke-linejoin:round;stroke-miterlimit:10;stroke-dasharray:none;stroke-opacity:1"
             id="path24"
             inkscape:connector-curvature="0" /></g><g
           id="g26"><path
             d="M 286.3,553.8 Z"
             style="fill:none;stroke:#040052;stroke-width:0.75;stroke-linecap:butt;stroke-linejoin:round;stroke-miterlimit:10;stroke-dasharray:none;stroke-opacity:1"
             id="path28"
             inkscape:connector-curvature="0" /></g><g
           id="g30"><path
             d="M 326,514.1 Z"
             style="fill:none;stroke:#040052;stroke-width:0.75;stroke-linecap:butt;stroke-linejoin:round;stroke-miterlimit:10;stroke-dasharray:none;stroke-opacity:1"
             id="path32"
             inkscape:connector-curvature="0" /></g><path
           d="m 306.1,477.3 82.3,-35.5 -82.3,-35.4 -82.2,35.4 z m -82.2,0 z m 164.5,-70.9 z"
           style="fill:#040052;fill-opacity:1;fill-rule:evenodd;stroke:none"
           id="path34"
           inkscape:connector-curvature="0" /><g
           id="g36"><path
             d="m 306.1,477.3 82.3,-35.5 -82.3,-35.4 -82.2,35.4 z"
             style="fill:none;stroke:#040052;stroke-width:0.75;stroke-linecap:butt;stroke-linejoin:round;stroke-miterlimit:10;stroke-dasharray:none;stroke-opacity:1"
             id="path38"
             inkscape:connector-curvature="0" /></g><g
           id="g40"><path
             d="M 223.9,477.3 Z"
             style="fill:none;stroke:#040052;stroke-width:0.75;stroke-linecap:butt;stroke-linejoin:round;stroke-miterlimit:10;stroke-dasharray:none;stroke-opacity:1"
             id="path42"
             inkscape:connector-curvature="0" /></g><g
           id="g44"><path
             d="M 388.4,406.4 Z"
             style="fill:none;stroke:#040052;stroke-width:0.75;stroke-linecap:butt;stroke-linejoin:round;stroke-miterlimit:10;stroke-dasharray:none;stroke-opacity:1"
             id="path46"
             inkscape:connector-curvature="0" /></g><g
           id="g48"><text
             transform="matrix(1,0,0,-1,270.3,435.6)"
             style="font-variant:normal;font-weight:normal;font-size:18px;font-family:'Liberation Sans';-inkscape-font-specification:LiberationSans;writing-mode:lr-tb;fill:#ffffff;fill-opacity:1;fill-rule:nonzero;stroke:none"
             id="text52"><tspan
               x="0 9 18.9 28.908001 38.807999 42.804001 47.790001 51.785999 61.793999"
               y="0"
               sodipodi:role="line"
               id="tspan50">condition</tspan></text>
</g><g
           id="g54"><path
             d="M 306.1,514.1 V 494.3"
             style="fill:none;stroke:#040052;stroke-width:2.29229999;stroke-linecap:butt;stroke-linejoin:round;stroke-miterlimit:10;stroke-dasharray:none;stroke-opacity:1"
             id="path56"
             inkscape:connector-curvature="0" /></g><path
           d="m 306.1,477.3 6,17.8 h -11.9 z"
           style="fill:#040052;fill-opacity:1;fill-rule:evenodd;stroke:none"
           id="path58"
           inkscape:connector-curvature="0" /><g
           id="g60"><path
             d="m 388.3,441.8 h 51.1 V 432"
             style="fill:none;stroke:#040052;stroke-width:2.29229999;stroke-linecap:butt;stroke-linejoin:round;stroke-miterlimit:10;stroke-dasharray:none;stroke-opacity:1"
             id="path62"
             inkscape:connector-curvature="0" /></g><path
           d="m 439.4,414.9 6,17.9 h -12 z"
           style="fill:#040052;fill-opacity:1;fill-rule:evenodd;stroke:none"
           id="path64"
           inkscape:connector-curvature="0" /><path
           d="m 439.4,346.9 h -68.1 v 68 h 136.1 v -68 z"
           style="fill:#040052;fill-opacity:1;fill-rule:evenodd;stroke:none"
           id="path66"
           inkscape:connector-curvature="0" /><g
           id="g68"><path
             d="m 439.4,346.9 h -68.1 v 68 h 136.1 v -68 z"
             style="fill:none;stroke:#040052;stroke-width:0.75;stroke-linecap:butt;stroke-linejoin:round;stroke-miterlimit:10;stroke-dasharray:none;stroke-opacity:1"
             id="path70"
             inkscape:connector-curvature="0" /></g><g
           id="g72"><text
             transform="matrix(1,0,0,-1,396.5,384.7)"
             style="font-variant:normal;font-weight:normal;font-size:18px;font-family:'Liberation Sans';-inkscape-font-specification:LiberationSans;writing-mode:lr-tb;fill:#ffffff;fill-opacity:1;fill-rule:nonzero;stroke:none"
             id="text76"><tspan
               x="0 9.0900002 18.99 28.997999 38.897999 42.894001 47.880001 51.875999 61.776001 71.783997 81.792"
               y="0"
               sodipodi:role="line"
               id="tspan74">conditional</tspan></text>
</g><g
           id="g78"><text
             transform="matrix(1,0,0,-1,419.9,364.5)"
             style="font-variant:normal;font-weight:normal;font-size:18px;font-family:'Liberation Sans';-inkscape-font-specification:LiberationSans;writing-mode:lr-tb;fill:#ffffff;fill-opacity:1;fill-rule:nonzero;stroke:none"
             id="text82"><tspan
               x="0 9 19.007999 28.908001"
               y="0"
               sodipodi:role="line"
               id="tspan80">code</tspan></text>
</g><path
           d="m 172.9,346.9 h -68 v 68 h 136 v -68 z"
           style="fill:#040052;fill-opacity:1;fill-rule:evenodd;stroke:none"
           id="path84"
           inkscape:connector-curvature="0" /><g
           id="g86"><path
             d="m 172.9,346.9 h -68 v 68 h 136 v -68 z"
             style="fill:none;stroke:#040052;stroke-width:0.75;stroke-linecap:butt;stroke-linejoin:round;stroke-miterlimit:10;stroke-dasharray:none;stroke-opacity:1"
             id="path88"
             inkscape:connector-curvature="0" /></g><g
           id="g90"><text
             transform="matrix(1,0,0,-1,130.1,384.7)"
             style="font-variant:normal;font-weight:normal;font-size:18px;font-family:'Liberation Sans';-inkscape-font-specification:LiberationSans;writing-mode:lr-tb;fill:#ffffff;fill-opacity:1;fill-rule:nonzero;stroke:none"
             id="text94"><tspan
               x="0 9 18.9 28.908001 38.916 42.821999 47.897999 51.804001 61.812 71.82 81.720001"
               y="0"
               sodipodi:role="line"
               id="tspan92">conditional</tspan></text>
</g><g
           id="g96"><text
             transform="matrix(1,0,0,-1,153.5,364.5)"
             style="font-variant:normal;font-weight:normal;font-size:18px;font-family:'Liberation Sans';-inkscape-font-specification:LiberationSans;writing-mode:lr-tb;fill:#ffffff;fill-opacity:1;fill-rule:nonzero;stroke:none"
             id="text100"><tspan
               x="0 9 18.9 28.908001"
               y="0"
               sodipodi:role="line"
               id="tspan98">code</tspan></text>
</g><g
           id="g102"><path
             d="m 223.9,441.8 h -51 V 432"
             style="fill:none;stroke:#040052;stroke-width:2.29229999;stroke-linecap:butt;stroke-linejoin:round;stroke-miterlimit:10;stroke-dasharray:none;stroke-opacity:1"
             id="path104"
             inkscape:connector-curvature="0" /></g><path
           d="m 172.9,414.9 6,17.9 h -12 z"
           style="fill:#040052;fill-opacity:1;fill-rule:evenodd;stroke:none"
           id="path106"
           inkscape:connector-curvature="0" /><path
           d="m 306.1,281.7 c 11.2,0 19.9,-8.6 19.9,-19.9 0,-11.2 -8.7,-19.8 -19.9,-19.8 -11.2,0 -19.8,8.6 -19.8,19.8 0,11.3 8.6,19.9 19.8,19.9 z m -19.8,0 z M 326,242 Z"
           style="fill:#040052;fill-opacity:1;fill-rule:evenodd;stroke:none"
           id="path108"
           inkscape:connector-curvature="0" /><g
           id="g110"><path
             d="m 306.1,281.7 c 11.2,0 19.9,-8.6 19.9,-19.9 0,-11.2 -8.7,-19.8 -19.9,-19.8 -11.2,0 -19.8,8.6 -19.8,19.8 0,11.3 8.6,19.9 19.8,19.9 z"
             style="fill:none;stroke:#040052;stroke-width:0.75;stroke-linecap:butt;stroke-linejoin:round;stroke-miterlimit:10;stroke-dasharray:none;stroke-opacity:1"
             id="path112"
             inkscape:connector-curvature="0" /></g><g
           id="g114"><path
             d="M 286.3,281.7 Z"
             style="fill:none;stroke:#040052;stroke-width:0.75;stroke-linecap:butt;stroke-linejoin:round;stroke-miterlimit:10;stroke-dasharray:none;stroke-opacity:1"
             id="path116"
             inkscape:connector-curvature="0" /></g><g
           id="g118"><path
             d="M 326,242 Z"
             style="fill:none;stroke:#040052;stroke-width:0.75;stroke-linecap:butt;stroke-linejoin:round;stroke-miterlimit:10;stroke-dasharray:none;stroke-opacity:1"
             id="path120"
             inkscape:connector-curvature="0" /></g><g
           id="g122"><path
             d="m 172.9,346.9 v -25.6 h 266.5 v 25.6"
             style="fill:none;stroke:#040052;stroke-width:2.29229999;stroke-linecap:butt;stroke-linejoin:round;stroke-miterlimit:10;stroke-dasharray:none;stroke-opacity:1"
             id="path124"
             inkscape:connector-curvature="0" /></g><g
           id="g126"><path
             d="M 306.1,321.3 V 298.8"
             style="fill:none;stroke:#040052;stroke-width:2.29229999;stroke-linecap:butt;stroke-linejoin:round;stroke-miterlimit:10;stroke-dasharray:none;stroke-opacity:1"
             id="path128"
             inkscape:connector-curvature="0" /></g><path
           d="m 306.1,281.7 6,17.9 h -11.9 z"
           style="fill:#040052;fill-opacity:1;fill-rule:evenodd;stroke:none"
           id="path130"
           inkscape:connector-curvature="0" /><g
           id="g132"><text
             transform="matrix(1,0,0,-1,112,482.9)"
             style="font-variant:normal;font-weight:normal;font-size:18px;font-family:'Liberation Sans';-inkscape-font-specification:LiberationSans;writing-mode:lr-tb;fill:#000000;fill-opacity:1;fill-rule:nonzero;stroke:none"
             id="text136"><tspan
               x="0 4.9860001 10.062 15.048 24.048 33.948002 43.956001 53.964001 57.869999 62.945999 66.851997 76.860001 86.867996 91.853996 95.760002 104.85"
               y="0"
               sodipodi:role="line"
               id="tspan134">If condition is </tspan></text>
</g><g
           id="g138"><text
             transform="matrix(1,0,0,-1,148.9,462.7)"
             style="font-variant:normal;font-weight:normal;font-size:18px;font-family:'Liberation Sans';-inkscape-font-specification:LiberationSans;writing-mode:lr-tb;fill:#000000;fill-opacity:1;fill-rule:nonzero;stroke:none"
             id="text142"><tspan
               x="0 5.0760002 11.07 20.969999"
               y="0"
               sodipodi:role="line"
               id="tspan140">true</tspan></text>
</g><g
           id="g144"><text
             transform="matrix(1,0,0,-1,395.4,482.9)"
             style="font-variant:normal;font-weight:normal;font-size:18px;font-family:'Liberation Sans';-inkscape-font-specification:LiberationSans;writing-mode:lr-tb;fill:#000000;fill-opacity:1;fill-rule:nonzero;stroke:none"
             id="text148"><tspan
               x="0 5.0760002 10.062 15.048 24.138 34.037998 44.046001 53.945999 57.942001 62.928001 66.924004 76.931999 86.832001 91.907997 95.814003 104.814"
               y="0"
               sodipodi:role="line"
               id="tspan146">If condition is </tspan></text>
</g><g
           id="g150"><text
             transform="matrix(1,0,0,-1,428.9,462.7)"
             style="font-variant:normal;font-weight:normal;font-size:18px;font-family:'Liberation Sans';-inkscape-font-specification:LiberationSans;writing-mode:lr-tb;fill:#000000;fill-opacity:1;fill-rule:nonzero;stroke:none"
             id="text154"><tspan
               x="0 5.0760002 14.976 18.972 27.972"
               y="0"
               sodipodi:role="line"
               id="tspan152">false</tspan></text>
</g></g></g></g></svg>